<svg xmlns="http://www.w3.org/2000/svg" xmlns:xlink="http://www.w3.org/1999/xlink" id="Layer_1" x="0" y="0" version="1.1" viewBox="0 0 133.2 144.1" xml:space="preserve" style="enable-background:new 0 0 133.2 144.10001"><style type="text/css">.st0{fill:#5e3f29}.st1{fill:#74a057}.st2{fill:#658b4e}.st3{fill:#6b9452}.st4{fill:#63874c}.st5{fill:#62854b}.st6{fill:#5e7f47}.st7{fill:#87c063}.st8{fill:#6b9150}.st9{fill:#84b860}.st10{fill:#6e9753}.st11{fill:#6f9a54}.st12{fill:#78a559}.st13{fill:#587642}.st14{fill:#668b4d}.st15{fill:#709954}.st16{fill:#65894c}.st17{fill:#75a258}.st18{fill:#698e4f}.st19{fill:#75a057}.st20{fill:#7aa95b}.st21{fill:#6f9954}.st22{fill:#618349}.st23{fill:#6c9552}.st24{fill:#6e9653}.st25{fill:#7baa5b}.st26{fill:#81b45e}.st27{fill:#5e8048}.st28{fill:#678d4e}.st29{fill:#77a257}.st30{fill:#77a559}.st31{fill:#7daf5d}.st32{fill:#79a75a}.st33{fill:#668c4e}.st34{fill:#749d56}.st35{fill:#8bc865}.st36{fill:#76a358}.st37{fill:#8ac565}.st38{fill:#61844a}.st39{fill:#608249}.st40{fill:#5b7a45}.st41{fill:#5c7b45}.st42{fill:#83b75f}.st43{fill:#64884c}.st44{fill:#5e7e47}.st45{fill:#77a659}.st46{fill:#5f8048}.st47{fill:#6c9452}.st48{fill:#536c3c}.st49{fill:#719b55}.st50{fill:#678e4f}.st51{fill:#83b960}.st52{fill:#5e7f48}.st53{fill:#688f4f}.st54{fill:#6d9552}.st55{fill:#64874b}.st56{fill:#77a358}.st57{fill:#7dae5c}.st58{fill:#64894c}.st59{fill:#89c063}.st60{fill:#82b760}.st61{fill:#78a659}.st62{fill:#739e56}.st63{fill:#62844a}.st64{fill:#6a9050}.st65{fill:#699050}.st66{fill:#6d9451}.st67{fill:#63854a}.st68{fill:#7bab5b}.st69{fill:#80b45f}.st70{fill:#7cad5c}.st71{fill:#76a258}.st72{fill:#6a9251}.st73{fill:#608048}.st74{fill:#698f4f}.st75{fill:#78a85a}.st76{fill:#7bac5c}.st77{fill:#81b65f}.st78{fill:#668a4d}.st79{fill:#5d7b45}.st80{fill:#5d7d46}.st81{fill:#719c55}.st82{fill:#618249}.st83{fill:#85bb61}.st84{fill:#7cae5c}.st85{fill:#63874b}.st86{fill:#6a9150}.st87{fill:#6a8f4f}.st88{fill:#628349}.st89{fill:#658b4d}.st90{fill:#7aa85a}.st91{fill:#76a157}.st92{fill:#7eb25e}.st93{fill:#83b860}.st94{fill:#729c55}.st95{fill:#587441}.st96{fill:#688e4f}.st97{fill:#6f9753}.st98{fill:#3b6e37}.st99{fill:#3c7038}.st100{fill:#396d37}.st101{fill:#316333}.st102{fill:#376a35}.st103{fill:#2d5e31}.st104{fill:#346835}.st105{fill:#41773a}.st106{fill:#336634}.st107{fill:#326333}.st108{fill:#336534}.st109{fill:#2e5f31}.st110{fill:#21532b}.st111{fill:#366935}.st112{fill:#3b6f37}.st113{fill:#4b7237}.st114{fill:#446a34}.st115{fill:#466b34}.st116{fill:#422919}.st117{fill:#316433}.st118{fill:#2e6031}.st119{fill:#527a39}.st120{fill:#4f7738}.st121{fill:#346734}.st122{fill:#4c7438}.st123{fill:#59823e}.st124{fill:#2f6232}.st125{fill:#376a36}.st126{fill:#42773a}.st127{fill:#517939}.st128{fill:#547d3c}.st129{fill:#26582e}.st130{fill:#545555}.st131{fill:#386b36}.st132{fill:#795438}.st133{fill:#986947}.st134{fill:#6c6c6b}.st135{fill:#024d2c}.st136{fill:#044f2d}.st137{fill:#004c2c}.st138{fill:#004428}.st139{fill:#004a2a}.st140{fill:#004025}.st141{fill:#00482a}.st142{fill:#0c542f}.st143{fill:#004729}.st144{fill:#004629}.st145{fill:#004126}.st146{fill:#00361f}.st147{fill:#00492a}.st148{fill:#024e2d}.st149{fill:#20502c}.st150{fill:#194a29}.st151{fill:#1c4b2a}.st152{fill:#230800}.st153{fill:#004528}.st154{fill:#27572f}.st155{fill:#24552e}.st156{fill:#21522d}.st157{fill:#2e5e32}.st158{fill:#004327}.st159{fill:#004a2b}.st160{fill:#0f5530}.st161{fill:#26562f}.st162{fill:#2a5a30}.st163{fill:#003b22}.st164{fill:#313636}.st165{fill:#004b2b}.st166{fill:#3d2112}.st167{fill:#53331f}.st168{fill:#6e462b}.st169{fill:#484a49}</style><g><path d="M132.89999,30.99994l-66.49999-31l-66.5,31h-0.1v5.1v5.1v5.1v5.1v5.1v5.1v10.40001v20.5v10.3v10.2l4.2,1.9 l4.2,1.9l4.2,1.9l8.3,3.9l4.2,1.9l4.2,1.9l12.5,5.8l8.3,3.89999l8.3,3.89999l4.2,1.89999l4,1.89999v0.10001h0.1h0.1v0.10001 l4-1.89999l4.2-1.89999l4.2-1.89999l8.3-3.89999l4.2-1.89999l4.2-1.89999l12.5-5.8l8.3-3.9l8.3-3.9l4.2-1.9l4.2-1.9v-5.1 l-4.2,1.89997l-4.2,1.9l8.3-3.9v-10.4v-5.1v-5.1v-5.1v-5.1v-5.2v-10.3v-5.1v-10.3v-5.1v-5.1L132.89999,30.99994L132.89999,30.99994 z M45.7,83.09994l4.2,1.9l-8.3-3.9L45.7,83.09994z M33.2,107.99994l4.2,1.9l8.3,3.9l-16.7-7.7L33.2,107.99994z M24.8,73.39994 l1.7,0.8l-5.9-2.7L24.8,73.39994z M12.3,108.59994l-4.2-1.9l8.3,3.9L12.3,108.59994z M16.5,74.59994l4.2,1.9l4.2,1.9L16.5,74.59994 z M20.7,86.79994l4.2,1.9l4.2,1.9L20.7,86.79994z M24.8,114.39994l8.3,3.9l-4.2-1.9L24.8,114.39994z M29,121.49994l4.2,1.9l8.3,3.9 L29,121.49994z M45.7,118.99994l-4.2-1.9l-4.2-1.9l12.5,5.8L45.7,118.99994z M49.8,115.79994l4.2,1.9l4.2,1.9L49.8,115.79994z M62.3,136.99994l-4.2-1.89999l8.2,3.8L62.3,136.99994z M112.2,71.39994l4.2-1.9l-8.3,3.9L112.2,71.39994z M103.8,106.09994 l8.3-3.9l-16.60001,7.8l4.2-1.9L103.8,106.09994z M99.7,66.99994l-8.3,3.9l-4.2,1.9L99.7,66.99994z M78.8,102.39994l-4.2,1.9 l-4.2,1.9L78.8,102.39994z M70.5,121.59994l8.3-3.9l-4.2,1.9L70.5,121.59994z M78.8,127.99994l-4.2,1.89999L83,125.99994 L78.8,127.99994z M83,90.19994l4.2-1.9l4.2-1.9L83,90.19994z M87.2,103.59994l8.3-3.9l-4.2,1.9L87.2,103.59994z M91.3,122.19994 l8.3-3.9l-4.2,1.9L91.3,122.19994z M95.5,125.29994l4.2-1.9l8.3-3.9L95.5,125.29994z M103.8,116.29994l4.2-1.9l4.2-1.9 L103.8,116.29994z M112.2,107.29994l-4.2,1.9l-4.2,1.9l12.5-5.8L112.2,107.29994z M116.3,100.19994l4.2-1.9l4.2-1.9 L116.3,100.19994z M120.5,62.39994l4.2-1.9l4.2-1.9L120.5,62.39994z M120.5,52.19994l4.2-1.9l4.2-1.9L120.5,52.19994z" class="st0"/><g><g><polyline points="66.4 62.1 62.3 60.1 66.4 58.2 70.6 60.1" class="st1"/><polyline points="62.3 60.1 58.1 58.2 62.3 56.2 66.4 58.2" class="st2"/><polyline points="58.1 58.2 53.9 56.2 58.1 54.3 62.3 56.2" class="st3"/><polyline points="53.9 56.2 49.8 54.3 53.9 52.4 58.1 54.3" class="st4"/><polyline points="49.8 54.3 45.6 52.4 49.8 50.4 53.9 52.4" class="st5"/><polyline points="45.6 52.4 41.5 50.4 45.6 48.5 49.8 50.4" class="st6"/><polyline points="41.5 50.4 37.3 48.5 41.5 46.5 45.6 48.5" class="st7"/><polyline points="37.3 48.5 33.1 46.5 37.3 44.6 41.5 46.5" class="st8"/><polyline points="33.1 46.5 29 44.6 33.1 42.7 37.3 44.6" class="st9"/><polyline points="29 44.6 24.8 42.7 29 40.7 33.1 42.7" class="st10"/><polyline points="24.8 42.7 20.6 40.7 24.8 38.8 29 40.7" class="st11"/><polyline points="20.6 40.7 16.5 38.8 20.6 36.8 24.8 38.8" class="st12"/><polyline points="16.5 38.8 12.3 36.8 16.5 34.9 20.6 36.8" class="st13"/><polyline points="12.3 36.8 8.2 34.9 12.3 33 16.5 34.9" class="st14"/><polyline points="8.2 34.9 4 33 8.2 31 12.3 33" class="st15"/><polyline points="4 33 -.2 31 4 29.1 8.2 31" class="st16"/><polyline points="70.6 60.1 66.4 58.2 70.6 56.2 74.7 58.2" class="st17"/><polyline points="66.4 58.2 62.3 56.2 66.4 54.3 70.6 56.2" class="st18"/><polyline points="62.3 56.2 58.1 54.3 62.3 52.4 66.4 54.3" class="st19"/><polyline points="58.1 54.3 53.9 52.4 58.1 50.4 62.3 52.4" class="st20"/><polyline points="53.9 52.4 49.8 50.4 53.9 48.5 58.1 50.4" class="st14"/><polyline points="49.8 50.4 45.6 48.5 49.8 46.5 53.9 48.5" class="st10"/><polyline points="45.6 48.5 41.5 46.5 45.6 44.6 49.8 46.5" class="st21"/><polyline points="41.5 46.5 37.3 44.6 41.5 42.7 45.6 44.6" class="st22"/><polyline points="37.3 44.6 33.1 42.7 37.3 40.7 41.5 42.7" class="st23"/><polyline points="33.1 42.7 29 40.7 33.1 38.8 37.3 40.7" class="st24"/><polyline points="29 40.7 24.8 38.8 29 36.8 33.1 38.8" class="st25"/><polyline points="24.8 38.8 20.6 36.8 24.8 34.9 29 36.8" class="st26"/><polyline points="20.6 36.8 16.5 34.9 20.6 33 24.8 34.9" class="st27"/><polyline points="16.5 34.9 12.3 33 16.5 31 20.6 33" class="st28"/><polyline points="12.3 33 8.2 31 12.3 29.1 16.5 31" class="st29"/><polyline points="8.2 31 4 29.1 8.2 27.1 12.3 29.1" class="st30"/><polyline points="74.7 58.2 70.6 56.2 74.7 54.3 78.9 56.2" class="st31"/><polyline points="70.6 56.2 66.4 54.3 70.6 52.4 74.7 54.3" class="st32"/><polyline points="66.4 54.3 62.3 52.4 66.4 50.4 70.6 52.4" class="st33"/><polyline points="62.3 52.4 58.1 50.4 62.3 48.5 66.4 50.4" class="st17"/><polyline points="58.1 50.4 53.9 48.5 58.1 46.5 62.3 48.5" class="st34"/><polyline points="53.9 48.5 49.8 46.5 53.9 44.6 58.1 46.5" class="st32"/><polyline points="49.8 46.5 45.6 44.6 49.8 42.7 53.9 44.6" class="st35"/><polyline points="45.6 44.6 41.5 42.7 45.6 40.7 49.8 42.7" class="st36"/><polyline points="41.5 42.7 37.3 40.7 41.5 38.8 45.6 40.7" class="st37"/><polyline points="37.3 40.7 33.1 38.8 37.3 36.8 41.5 38.8" class="st38"/><polyline points="33.1 38.8 29 36.8 33.1 34.9 37.3 36.8" class="st22"/><polyline points="29 36.8 24.8 34.9 29 33 33.1 34.9" class="st39"/><polyline points="24.8 34.9 20.6 33 24.8 31 29 33" class="st40"/><polyline points="20.6 33 16.5 31 20.6 29.1 24.8 31" class="st41"/><polyline points="16.5 31 12.3 29.1 16.5 27.1 20.6 29.1" class="st20"/><polyline points="12.3 29.1 8.2 27.1 12.3 25.2 16.5 27.1" class="st42"/><polyline points="78.9 56.2 74.7 54.3 78.9 52.4 83.1 54.3" class="st43"/><polyline points="74.7 54.3 70.6 52.4 74.7 50.4 78.9 52.4" class="st44"/><polyline points="70.6 52.4 66.4 50.4 70.6 48.5 74.7 50.4" class="st45"/><polyline points="66.4 50.4 62.3 48.5 66.4 46.5 70.6 48.5" class="st19"/><polyline points="62.3 48.5 58.1 46.5 62.3 44.6 66.4 46.5" class="st46"/><polyline points="58.1 46.5 53.9 44.6 58.1 42.7 62.3 44.6" class="st28"/><polyline points="53.9 44.6 49.8 42.7 53.9 40.7 58.1 42.7" class="st47"/><polyline points="49.8 42.7 45.6 40.7 49.8 38.8 53.9 40.7" class="st48"/><polyline points="45.6 40.7 41.5 38.8 45.6 36.8 49.8 38.8" class="st6"/><polyline points="41.5 38.8 37.3 36.8 41.5 34.9 45.6 36.8" class="st16"/><polyline points="37.3 36.8 33.1 34.9 37.3 33 41.5 34.9" class="st3"/><polyline points="33.1 34.9 29 33 33.1 31 37.3 33" class="st49"/><polyline points="29 33 24.8 31 29 29.1 33.1 31" class="st50"/><polyline points="24.8 31 20.6 29.1 24.8 27.1 29 29.1" class="st5"/><polyline points="20.6 29.1 16.5 27.1 20.6 25.2 24.8 27.1" class="st11"/><polyline points="16.5 27.1 12.3 25.2 16.5 23.3 20.6 25.2" class="st51"/><polyline points="83.1 54.3 78.9 52.4 83.1 50.4 87.2 52.4" class="st50"/><polyline points="78.9 52.4 74.7 50.4 78.9 48.5 83.1 50.4" class="st39"/><polyline points="74.7 50.4 70.6 48.5 74.7 46.5 78.9 48.5" class="st22"/><polyline points="70.6 48.5 66.4 46.5 70.6 44.6 74.7 46.5" class="st38"/><polyline points="66.4 46.5 62.3 44.6 66.4 42.7 70.6 44.6" class="st52"/><polyline points="62.3 44.6 58.1 42.7 62.3 40.7 66.4 42.7" class="st53"/><polyline points="58.1 42.7 53.9 40.7 58.1 38.8 62.3 40.7" class="st54"/><polyline points="53.9 40.7 49.8 38.8 53.9 36.8 58.1 38.8" class="st11"/><polyline points="49.8 38.8 45.6 36.8 49.8 34.9 53.9 36.8" class="st14"/><polyline points="45.6 36.8 41.5 34.9 45.6 33 49.8 34.9" class="st23"/><polyline points="41.5 34.9 37.3 33 41.5 31 45.6 33" class="st55"/><polyline points="37.3 33 33.1 31 37.3 29.1 41.5 31" class="st11"/><polyline points="33.1 31 29 29.1 33.1 27.1 37.3 29.1" class="st56"/><polyline points="29 29.1 24.8 27.1 29 25.2 33.1 27.1" class="st16"/><polyline points="24.8 27.1 20.6 25.2 24.8 23.3 29 25.2" class="st57"/><polyline points="20.6 25.2 16.5 23.3 20.6 21.3 24.8 23.3" class="st43"/><polyline points="87.2 52.4 83.1 50.4 87.2 48.5 91.4 50.4" class="st8"/><polyline points="83.1 50.4 78.9 48.5 83.1 46.5 87.2 48.5" class="st58"/><polyline points="78.9 48.5 74.7 46.5 78.9 44.6 83.1 46.5" class="st33"/><polyline points="74.7 46.5 70.6 44.6 74.7 42.7 78.9 44.6" class="st8"/><polyline points="70.6 44.6 66.4 42.7 70.6 40.7 74.7 42.7" class="st4"/><polyline points="66.4 42.7 62.3 40.7 66.4 38.8 70.6 40.7" class="st32"/><polyline points="62.3 40.7 58.1 38.8 62.3 36.8 66.4 38.8" class="st44"/><polyline points="58.1 38.8 53.9 36.8 58.1 34.9 62.3 36.8" class="st59"/><polyline points="53.9 36.8 49.8 34.9 53.9 33 58.1 34.9" class="st23"/><polyline points="49.8 34.9 45.6 33 49.8 31 53.9 33" class="st8"/><polyline points="45.6 33 41.5 31 45.6 29.1 49.8 31" class="st60"/><polyline points="41.5 31 37.3 29.1 41.5 27.1 45.6 29.1" class="st55"/><polyline points="37.3 29.1 33.1 27.1 37.3 25.2 41.5 27.1" class="st61"/><polyline points="33.1 27.1 29 25.2 33.1 23.3 37.3 25.2" class="st11"/><polyline points="29 25.2 24.8 23.3 29 21.3 33.1 23.3" class="st62"/><polyline points="24.8 23.3 20.6 21.3 24.8 19.4 29 21.3" class="st34"/><polyline points="91.4 50.4 87.2 48.5 91.4 46.5 95.6 48.5" class="st63"/><polyline points="87.2 48.5 83.1 46.5 87.2 44.6 91.4 46.5" class="st8"/><polyline points="83.1 46.5 78.9 44.6 83.1 42.7 87.2 44.6" class="st26"/><polyline points="78.9 44.6 74.7 42.7 78.9 40.7 83.1 42.7" class="st64"/><polyline points="74.7 42.7 70.6 40.7 74.7 38.8 78.9 40.7" class="st20"/><polyline points="70.6 40.7 66.4 38.8 70.6 36.8 74.7 38.8" class="st23"/><polyline points="66.4 38.8 62.3 36.8 66.4 34.9 70.6 36.8" class="st47"/><polyline points="62.3 36.8 58.1 34.9 62.3 33 66.4 34.9" class="st14"/><polyline points="58.1 34.9 53.9 33 58.1 31 62.3 33" class="st22"/><polyline points="53.9 33 49.8 31 53.9 29.1 58.1 31" class="st25"/><polyline points="49.8 31 45.6 29.1 49.8 27.1 53.9 29.1" class="st49"/><polyline points="45.6 29.1 41.5 27.1 45.6 25.2 49.8 27.1" class="st65"/><polyline points="41.5 27.1 37.3 25.2 41.5 23.3 45.6 25.2" class="st64"/><polyline points="37.3 25.2 33.1 23.3 37.3 21.3 41.5 23.3" class="st9"/><polyline points="33.1 23.3 29 21.3 33.1 19.4 37.3 21.3" class="st55"/><polyline points="29 21.3 24.8 19.4 29 17.5 33.1 19.4" class="st21"/><polyline points="95.6 48.5 91.4 46.5 95.6 44.6 99.7 46.5" class="st22"/><polyline points="91.4 46.5 87.2 44.6 91.4 42.7 95.6 44.6" class="st39"/><polyline points="87.2 44.6 83.1 42.7 87.2 40.7 91.4 42.7" class="st23"/><polyline points="83.1 42.7 78.9 40.7 83.1 38.8 87.2 40.7" class="st58"/><polyline points="78.9 40.7 74.7 38.8 78.9 36.8 83.1 38.8" class="st66"/><polyline points="74.7 38.8 70.6 36.8 74.7 34.9 78.9 36.8" class="st67"/><polyline points="70.6 36.8 66.4 34.9 70.6 33 74.7 34.9" class="st68"/><polyline points="66.4 34.9 62.3 33 66.4 31 70.6 33" class="st69"/><polyline points="62.3 33 58.1 31 62.3 29.1 66.4 31" class="st62"/><polyline points="58.1 31 53.9 29.1 58.1 27.1 62.3 29.1" class="st70"/><polyline points="53.9 29.1 49.8 27.1 53.9 25.2 58.1 27.1" class="st38"/><polyline points="49.8 27.1 41.5 23.3 45.6 21.3 53.9 25.2" class="st68"/><polyline points="41.5 23.3 37.3 21.3 41.5 19.4 45.6 21.3" class="st42"/><polyline points="37.3 21.3 33.1 19.4 37.3 17.5 41.5 19.4" class="st34"/><polyline points="33.1 19.4 29 17.5 33.1 15.5 37.3 17.5" class="st5"/><polyline points="99.7 46.5 95.6 44.6 99.7 42.7 103.9 44.6" class="st25"/><polyline points="95.6 44.6 91.4 42.7 95.6 40.7 99.7 42.7" class="st22"/><polyline points="91.4 42.7 87.2 40.7 91.4 38.8 95.6 40.7" class="st71"/><polyline points="87.2 40.7 83.1 38.8 87.2 36.8 91.4 38.8" class="st72"/><polyline points="83.1 38.8 78.9 36.8 83.1 34.9 87.2 36.8" class="st38"/><polyline points="78.9 36.8 74.7 34.9 78.9 33 83.1 34.9" class="st14"/><polyline points="74.7 34.9 70.6 33 74.7 31 78.9 33" class="st57"/><polyline points="70.6 33 66.4 31 70.6 29.1 74.7 31" class="st15"/><polyline points="66.4 31 62.3 29.1 66.4 27.1 70.6 29.1" class="st43"/><polyline points="62.3 29.1 58.1 27.1 62.3 25.2 66.4 27.1" class="st12"/><polyline points="58.1 27.1 53.9 25.2 58.1 23.3 62.3 25.2" class="st73"/><polyline points="53.9 25.2 49.8 23.3 53.9 21.3 58.1 23.3" class="st3"/><polyline points="49.8 23.3 45.6 21.3 49.8 19.4 53.9 21.3" class="st74"/><polyline points="45.6 21.3 41.5 19.4 45.6 17.5 49.8 19.4" class="st19"/><polyline points="41.5 19.4 37.3 17.5 41.5 15.5 45.6 17.5" class="st14"/><polyline points="37.3 17.5 33.1 15.5 37.3 13.6 41.5 15.5" class="st72"/><polyline points="103.9 44.6 99.7 42.7 103.9 40.7 108 42.7" class="st8"/><polyline points="99.7 42.7 95.6 40.7 99.7 38.8 103.9 40.7" class="st11"/><polyline points="95.6 40.7 91.4 38.8 95.5 36.8 99.7 38.8" class="st75"/><polyline points="91.4 38.8 87.2 36.8 91.4 34.9 95.5 36.8" class="st47"/><polyline points="87.2 36.8 83.1 34.9 87.2 33 91.4 34.9" class="st76"/><polyline points="83.1 34.9 78.9 33 83.1 31 87.2 33" class="st77"/><polyline points="78.9 33 74.7 31 78.9 29.1 83.1 31" class="st78"/><polyline points="74.7 31 70.6 29.1 74.7 27.1 78.9 29.1" class="st43"/><polyline points="70.6 29.1 66.4 27.1 70.6 25.2 74.7 27.1" class="st22"/><polyline points="66.4 27.1 62.3 25.2 66.4 23.3 70.6 25.2" class="st50"/><polyline points="62.3 25.2 58.1 23.3 62.3 21.3 66.4 23.3" class="st4"/><polyline points="58.1 23.3 53.9 21.3 58.1 19.4 62.3 21.3" class="st54"/><polyline points="53.9 21.3 49.8 19.4 53.9 17.5 58.1 19.4" class="st47"/><polyline points="49.8 19.4 45.6 17.5 49.8 15.5 53.9 17.5" class="st61"/><polyline points="45.6 17.5 41.5 15.5 45.6 13.6 49.8 15.5" class="st34"/><polyline points="41.5 15.5 37.3 13.6 41.5 11.6 45.6 13.6" class="st22"/><polyline points="108 42.7 103.9 40.7 108 38.8 112.2 40.7" class="st10"/><polyline points="103.9 40.7 99.7 38.8 103.9 36.8 108 38.8" class="st64"/><polyline points="99.7 38.8 95.5 36.8 99.7 34.9 103.9 36.8" class="st2"/><polyline points="95.5 36.8 91.4 34.9 95.6 33 99.7 34.9" class="st79"/><polyline points="91.4 34.9 87.2 33 91.4 31 95.6 33" class="st4"/><polyline points="87.2 33 83.1 31 87.2 29.1 91.4 31" class="st2"/><polyline points="83.1 31 78.9 29.1 83.1 27.1 87.2 29.1" class="st10"/><polyline points="78.9 29.1 74.7 27.1 78.9 25.2 83.1 27.1" class="st2"/><polyline points="74.7 27.1 70.6 25.2 74.7 23.3 78.9 25.2" class="st34"/><polyline points="70.6 25.2 66.4 23.3 70.6 21.3 74.7 23.3" class="st10"/><polyline points="66.4 23.3 62.3 21.3 66.4 19.4 70.6 21.3" class="st15"/><polyline points="62.3 21.3 58.1 19.4 62.3 17.5 66.4 19.4" class="st5"/><polyline points="58.1 19.4 53.9 17.5 58.1 15.5 62.3 17.5" class="st32"/><polyline points="53.9 17.5 49.8 15.5 53.9 13.6 58.1 15.5" class="st80"/><polyline points="49.8 15.5 45.6 13.6 49.8 11.6 53.9 13.6" class="st49"/><polyline points="45.6 13.6 41.5 11.6 45.6 9.7 49.8 11.6" class="st81"/><polyline points="112.2 40.7 108 38.8 112.2 36.8 116.4 38.8" class="st64"/><polyline points="108 38.8 103.9 36.8 108 34.9 112.2 36.8" class="st28"/><polyline points="103.9 36.8 99.7 34.9 103.9 33 108 34.9" class="st82"/><polyline points="99.7 34.9 95.6 33 99.7 31 103.9 33" class="st68"/><polyline points="95.6 33 91.4 31 95.5 29.1 99.7 31" class="st32"/><polyline points="91.4 31 87.2 29.1 91.4 27.1 95.5 29.1" class="st22"/><polyline points="87.2 29.1 83.1 27.1 87.2 25.2 91.4 27.1" class="st41"/><polyline points="83.1 27.1 78.9 25.2 83.1 23.3 87.2 25.2" class="st83"/><polyline points="78.9 25.2 74.7 23.3 78.9 21.3 83.1 23.3" class="st76"/><polyline points="74.7 23.3 70.6 21.3 74.7 19.4 78.9 21.3" class="st28"/><polyline points="70.6 21.3 66.4 19.4 70.6 17.5 74.7 19.4" class="st84"/><polyline points="66.4 19.4 62.3 17.5 66.4 15.5 70.6 17.5" class="st70"/><polyline points="62.3 17.5 58.1 15.5 62.3 13.6 66.4 15.5" class="st85"/><polyline points="58.1 15.5 53.9 13.6 58.1 11.6 62.3 13.6" class="st70"/><polyline points="53.9 13.6 49.8 11.6 53.9 9.7 58.1 11.6" class="st4"/><polyline points="49.8 11.6 45.6 9.7 49.8 7.8 53.9 9.7" class="st36"/><polyline points="116.4 38.8 112.2 36.8 116.4 34.9 120.5 36.8" class="st46"/><polyline points="112.2 36.8 108 34.9 112.2 33 116.4 34.9" class="st64"/><polyline points="108 34.9 103.9 33 108 31 112.2 33" class="st74"/><polyline points="103.9 33 99.7 31 103.9 29.1 108 31" class="st86"/><polyline points="99.7 31 95.5 29.1 99.7 27.1 103.9 29.1" class="st21"/><polyline points="95.5 29.1 91.4 27.1 95.6 25.2 99.7 27.1" class="st87"/><polyline points="91.4 27.1 87.2 25.2 91.4 23.3 95.6 25.2" class="st4"/><polyline points="87.2 25.2 83.1 23.3 87.2 21.3 91.4 23.3" class="st22"/><polyline points="83.1 23.3 78.9 21.3 83.1 19.4 87.2 21.3" class="st52"/><polyline points="78.9 21.3 74.7 19.4 78.9 17.5 83.1 19.4" class="st46"/><polyline points="74.7 19.4 70.6 17.5 74.7 15.5 78.9 17.5" class="st49"/><polyline points="70.6 17.5 66.4 15.5 70.6 13.6 74.7 15.5" class="st72"/><polyline points="66.4 15.5 62.3 13.6 66.4 11.6 70.6 13.6" class="st15"/><polyline points="62.3 13.6 58.1 11.6 62.3 9.7 66.4 11.6" class="st28"/><polyline points="58.1 11.6 53.9 9.7 58.1 7.8 62.3 9.7" class="st16"/><polyline points="53.9 9.7 49.8 7.8 53.9 5.8 58.1 7.8" class="st40"/><polyline points="120.5 36.8 116.4 34.9 120.5 33 124.7 34.9" class="st42"/><polyline points="116.4 34.9 112.2 33 116.4 31 120.5 33" class="st88"/><polyline points="112.2 33 108 31 112.2 29.1 116.4 31" class="st41"/><polyline points="108 31 103.9 29.1 108 27.1 112.2 29.1" class="st89"/><polyline points="103.9 29.1 99.7 27.1 103.9 25.2 108 27.1" class="st76"/><polyline points="99.7 27.1 95.6 25.2 99.7 23.3 103.9 25.2" class="st90"/><polyline points="95.6 25.2 91.4 23.3 95.6 21.3 99.7 23.3" class="st91"/><polyline points="91.4 23.3 87.2 21.3 91.4 19.4 95.6 21.3" class="st10"/><polyline points="87.2 21.3 83.1 19.4 87.2 17.5 91.4 19.4" class="st47"/><polyline points="83.1 19.4 78.9 17.5 83.1 15.5 87.2 17.5" class="st72"/><polyline points="78.9 17.5 74.7 15.5 78.9 13.6 83.1 15.5" class="st2"/><polyline points="74.7 15.5 70.6 13.6 74.7 11.6 78.9 13.6" class="st14"/><polyline points="70.6 13.6 66.4 11.6 70.6 9.7 74.7 11.6" class="st55"/><polyline points="66.4 11.6 62.3 9.7 66.4 7.8 70.6 9.7" class="st92"/><polyline points="62.3 9.7 58.1 7.8 62.3 5.8 66.4 7.8" class="st93"/><polyline points="58.1 7.8 53.9 5.8 58.1 3.9 62.3 5.8" class="st30"/><polyline points="124.7 34.9 120.5 33 124.7 31 128.8 33" class="st74"/><polyline points="120.5 33 116.4 31 120.5 29.1 124.7 31" class="st2"/><polyline points="116.4 31 112.2 29.1 116.4 27.1 120.5 29.1" class="st53"/><polyline points="112.2 29.1 108 27.1 112.2 25.2 116.4 27.1" class="st5"/><polyline points="108 27.1 103.9 25.2 108 23.3 112.2 25.2" class="st24"/><polyline points="103.9 25.2 99.7 23.3 103.9 21.3 108 23.3" class="st32"/><polyline points="99.7 23.3 95.6 21.3 99.7 19.4 103.9 21.3" class="st25"/><polyline points="95.6 21.3 91.4 19.4 95.6 17.5 99.7 19.4" class="st22"/><polyline points="91.4 19.4 87.2 17.5 91.4 15.5 95.6 17.5" class="st5"/><polyline points="87.2 17.5 83.1 15.5 87.2 13.6 91.4 15.5" class="st28"/><polyline points="83.1 15.5 78.9 13.6 83.1 11.6 87.2 13.6" class="st22"/><polyline points="78.9 13.6 74.7 11.6 78.9 9.7 83.1 11.6" class="st94"/><polyline points="74.7 11.6 70.6 9.7 74.7 7.8 78.9 9.7" class="st11"/><polyline points="70.6 9.7 66.4 7.8 70.6 5.8 74.7 7.8" class="st71"/><polyline points="66.4 7.8 62.3 5.8 66.4 3.9 70.6 5.8" class="st53"/><polyline points="62.3 5.8 58.1 3.9 62.3 1.9 66.4 3.9" class="st21"/><polyline points="128.8 33 124.7 31 128.8 29.1 133 31" class="st64"/><polyline points="124.7 31 120.5 29.1 124.7 27.1 128.8 29.1" class="st95"/><polyline points="120.5 29.1 116.4 27.1 120.5 25.2 124.7 27.1" class="st5"/><polyline points="116.4 27.1 112.2 25.2 116.4 23.3 120.5 25.2" class="st28"/><polyline points="112.2 25.2 108 23.3 112.2 21.3 116.4 23.3" class="st89"/><polyline points="108 23.3 103.9 21.3 108 19.4 112.2 21.3" class="st96"/><polyline points="103.9 21.3 99.7 19.4 103.9 17.5 108 19.4" class="st97"/><polyline points="99.7 19.4 95.6 17.5 99.7 15.5 103.9 17.5" class="st19"/><polyline points="95.6 17.5 91.4 15.5 95.6 13.6 99.7 15.5" class="st65"/><polyline points="91.4 15.5 87.2 13.6 91.4 11.6 95.6 13.6" class="st22"/><polyline points="87.2 13.6 83.1 11.6 87.2 9.7 91.4 11.6" class="st8"/><polyline points="83.1 11.6 74.7 7.8 78.9 5.8 87.2 9.7" class="st89"/><polyline points="74.7 7.8 70.6 5.8 74.7 3.9 78.9 5.8" class="st24"/><polyline points="70.6 5.8 66.4 3.9 70.6 1.9 74.7 3.9" class="st15"/><polyline points="66.4 3.9 62.3 1.9 66.4 0 70.6 1.9" class="st10"/></g><g><polyline points="-.2 30.9 4 32.9 4 38 -.2 36.1" class="st98"/><polygon points="4 32.9 8.2 34.8 8.2 40 4 38" class="st99"/><polygon points="8.2 34.8 12.3 36.8 12.3 41.9 8.2 40" class="st100"/><polygon points="12.3 36.8 20.7 40.7 20.7 45.8 12.3 41.9" class="st101"/><polyline points="20.7 40.7 24.8 42.6 24.8 47.7 20.7 45.8" class="st102"/><polygon points="24.8 42.6 29 44.5 29 49.7 24.8 47.7" class="st103"/><polygon points="29 44.5 33.2 46.5 33.2 51.6 29 49.7" class="st104"/><polygon points="33.2 46.5 37.3 48.4 37.3 53.6 33.2 51.6" class="st105"/><polyline points="37.3 48.4 41.5 50.4 41.5 55.5 37.3 53.6" class="st99"/><polyline points="41.5 50.4 45.7 52.3 45.7 57.4 41.5 55.5" class="st106"/><polyline points="45.7 52.3 49.8 54.3 49.8 59.4 45.7 57.4" class="st107"/><polyline points="49.8 54.3 54 56.2 54 61.3 49.8 59.4" class="st108"/><polyline points="54 56.2 58.2 58.1 58.2 63.3 54 61.3" class="st109"/><polyline points="58.2 58.1 62.3 60.1 62.3 65.2 58.2 63.3" class="st110"/><polyline points="62.3 60.1 66.5 62 66.5 67.2 62.3 65.2" class="st111"/><polygon points="-.2 36.1 4 38 4 43.1 -.2 41.2" class="st112"/><polygon points="4 38 8.2 40 8.2 45.1 4 43.1" class="st104"/><polygon points="8.2 40 12.3 41.9 12.3 47 8.2 45.1" class="st113"/><polygon points="12.3 41.9 16.5 43.8 16.5 49 12.3 47" class="st114"/><polygon points="16.5 43.8 20.7 45.8 20.7 50.9 16.5 49" class="st115"/><polygon points="20.7 45.8 24.8 47.7 24.8 58 29 59.9 29 54.8 33.2 56.7 33.2 67 20.7 61.2" class="st116"/><polygon points="24.8 47.7 29 49.7 29 54.8 24.8 52.9" class="st117"/><polygon points="29 49.7 33.2 51.6 33.2 56.7 29 54.8" class="st118"/><polygon points="33.2 51.6 37.3 53.6 37.3 58.7 33.2 56.7" class="st103"/><polyline points="37.3 53.6 41.5 55.5 41.5 60.6 37.3 58.7" class="st119"/><polyline points="41.5 55.5 45.7 57.4 45.7 62.6 41.5 60.6" class="st120"/><polyline points="45.7 57.4 49.8 59.4 49.8 64.5 45.7 62.6" class="st100"/><polyline points="49.8 59.4 54 61.3 54 66.5 49.8 64.5" class="st109"/><polyline points="54 61.3 58.2 63.3 58.2 68.4 54 66.5" class="st104"/><polyline points="58.2 63.3 62.3 65.2 62.3 70.3 58.2 68.4" class="st107"/><polyline points="62.3 65.2 66.5 67.2 66.5 72.3 62.3 70.3" class="st121"/><polygon points="-.2 41.2 4 43.1 4 48.3 -.2 46.3" class="st122"/><polygon points="4 43.1 8.2 45.1 8.2 50.2 4 48.3" class="st116"/><polyline points="8.2 45.1 12.3 47 12.3 52.2 8.2 50.2" class="st123"/><polygon points="12.3 47 16.5 49 16.5 54.1 12.3 52.2" class="st124"/><polygon points="16.5 49 20.7 50.9 20.7 56 16.5 54.1" class="st108"/><polygon points="24.8 52.9 29 54.8 29 59.9 24.8 58" class="st125"/><polygon points="33.2 56.7 37.3 58.7 37.3 63.8 33.2 61.9" class="st98"/><polyline points="37.3 58.7 41.5 60.6 41.5 65.8 37.3 63.8" class="st126"/><polyline points="41.5 60.6 45.7 62.6 45.7 67.7 41.5 65.8" class="st127"/><polyline points="45.7 62.6 49.8 64.5 49.8 69.6 45.7 67.7" class="st128"/><polyline points="49.8 64.5 54 66.5 54 71.6 49.8 69.6" class="st116"/><polyline points="54 66.5 58.2 68.4 58.2 73.5 54 71.6" class="st129"/><polyline points="58.2 68.4 62.3 70.3 62.3 75.5 58.2 73.5" class="st103"/><polyline points="62.3 70.3 66.5 72.3 66.5 77.4 62.3 75.5" class="st116"/><polyline points="-.2 46.3 4 48.3 4 53.4 -.2 51.5" class="st116"/><polygon points="4 48.3 8.2 50.2 8.2 55.3 4 53.4" class="st130"/><polyline points="8.2 50.2 16.5 54.1 16.5 59.2 8.2 55.3" class="st116"/><polygon points="16.5 54.1 20.7 56 20.7 61.2 16.5 59.2" class="st131"/><polygon points="33.2 61.9 37.3 63.8 37.3 68.9 33.2 67" class="st103"/><polygon points="37.3 63.8 41.5 65.8 41.5 70.9 45.7 72.8 45.7 78 37.3 74.1 37.3 79.2 24.8 73.4 24.8 68.2 33.2 72.1 33.2 67 37.3 68.9" class="st116"/><polygon points="41.5 65.8 45.7 67.7 45.7 72.8 41.5 70.9" class="st111"/><polygon points="45.7 67.7 49.8 69.6 49.8 74.8 45.7 72.8" class="st116"/><polygon points="49.8 69.6 54 71.6 54 81.8 62.3 85.7 62.3 96 58.2 94 58.2 88.9 54 87 54 92.1 58.2 94 58.2 104.3 49.8 100.4 49.8 115.8 58.2 119.7 58.2 124.8 54 122.9 54 128 58.2 129.9 58.2 135.1 49.8 131.2 49.8 120.9 37.3 115.1 37.3 120.2 45.7 124.1 45.7 129.2 49.8 131.2 49.8 136.3 41.5 132.4 41.5 127.3 33.2 123.4 33.2 113.1 29 111.2 29 106.1 45.7 113.8 45.7 103.6 29 95.8 29 90.7 33.2 92.6 33.2 87.5 37.3 89.5 37.3 94.6 45.7 98.5 45.7 93.3 49.8 95.3" class="st0"/><polyline points="54 71.6 62.3 75.5 62.3 85.7 58.2 83.8 58.2 78.7 54 76.7" class="st116"/><polyline points="62.3 75.5 66.5 77.4 66.5 87.7 62.3 85.7" class="st0"/><polygon points="-.2 51.5 4 53.4 4 58.5 -.2 56.6" class="st132"/><polyline points="4 53.4 8.2 55.3 8.2 60.5 4 58.5" class="st0"/><polygon points="8.2 55.3 12.3 57.3 12.3 62.4 16.5 64.4 16.5 69.5 8.2 65.6" class="st132"/><polygon points="12.3 57.3 16.5 59.2 16.5 64.4 12.3 62.4" class="st133"/><polygon points="16.5 59.2 20.7 61.2 20.7 66.3 16.5 64.4" class="st116"/><polygon points="20.7 61.2 24.8 63.1 24.8 73.4 20.7 71.4" class="st132"/><polygon points="24.8 63.1 33.2 67 33.2 72.1 24.8 68.2" class="st0"/><polygon points="45.7 72.8 49.8 74.8 49.8 79.9 45.7 78" class="st130"/><polyline points="54 76.7 58.2 78.7 58.2 83.8 54 81.8" class="st132"/><polygon points="-.2 56.6 4 58.5 4 63.7 -.2 61.7" class="st0"/><polygon points="4 58.5 8.2 60.5 8.2 70.7 4 68.8" class="st116"/><polygon points="16.5 64.4 20.7 66.3 20.7 71.4 16.5 69.5" class="st0"/><polygon points="37.3 74.1 45.7 78 45.7 83.1 41.5 81.1 41.5 86.3 37.3 84.3" class="st0"/><polygon points="45.7 78 49.8 79.9 49.8 85 45.7 83.1" class="st116"/><polyline points="62.3 85.7 66.5 87.7 66.5 92.8 62.3 90.9" class="st133"/><polyline points="-.2 61.7 4 63.7 4 73.9 -.2 72" class="st133"/><polygon points="8.2 65.6 16.5 69.5 16.5 74.6 8.2 70.7" class="st0"/><polygon points="16.5 69.5 20.7 71.4 20.7 76.6 16.5 74.6" class="st134"/><polygon points="20.7 71.4 29 75.3 29 80.4 33.2 82.4 33.2 87.5 29 85.6 29 90.7 24.8 88.8 24.8 78.5 20.7 76.6" class="st0"/><polygon points="29 75.3 37.3 79.2 37.3 84.3 29 80.4" class="st133"/><polygon points="41.5 81.1 49.8 85 49.8 90.2 41.5 86.3" class="st133"/><polyline points="54 87 58.2 88.9 58.2 94 54 92.1" class="st132"/><polyline points="62.3 90.9 66.5 92.8 66.5 103.1 58.2 99.2 58.2 94 62.3 96" class="st132"/><polyline points="4 68.8 8.2 70.7 8.2 75.9 12.3 77.8 12.3 82.9 4 79" class="st0"/><polyline points="8.2 70.7 16.5 74.6 16.5 79.7 8.2 75.9" class="st133"/><polyline points="16.5 74.6 24.8 78.5 24.8 88.8 20.7 86.8 20.7 81.7 16.5 79.7" class="st132"/><polygon points="33.2 82.4 37.3 84.3 37.3 89.5 33.2 87.5" class="st132"/><polygon points="37.3 84.3 41.5 86.3 41.5 91.4 37.3 89.5" class="st116"/><polygon points="41.5 86.3 49.8 90.2 49.8 95.3 45.7 93.3 45.7 98.5 37.3 94.6 37.3 89.5 41.5 91.4" class="st132"/><polyline points="-.2 72 4 73.9 4 79 8.2 81 8.2 91.2 4 89.3 4 94.4 -.2 92.5" class="st132"/><polyline points="12.3 77.8 16.5 79.7 16.5 84.9 12.3 82.9" class="st132"/><polyline points="16.5 79.7 20.7 81.7 20.7 91.9 12.3 88.1 12.3 82.9 16.5 84.9" class="st0"/><polygon points="29 85.6 33.2 87.5 33.2 92.6 29 90.7" class="st116"/><polyline points="58.2 99.2 62.3 101.1 62.3 106.2 58.2 104.3" class="st116"/><polyline points="62.3 101.1 66.5 103.1 66.5 108.2 62.3 106.2" class="st0"/><polyline points="8.2 81 12.3 82.9 12.3 88.1 8.2 86.1" class="st116"/><polyline points="20.7 86.8 29 90.7 29 95.8 20.7 91.9" class="st116"/><polyline points="49.8 100.4 58.2 104.3 58.2 109.4 49.8 105.5" class="st133"/><polyline points="58.2 104.3 62.3 106.2 62.3 111.4 58.2 109.4" class="st0"/><polyline points="62.3 106.2 66.5 108.2 66.5 113.3 62.3 111.4" class="st132"/><polyline points="8.2 86.1 12.3 88.1 12.3 98.3 4 94.4 4 89.3 8.2 91.2" class="st0"/><polyline points="12.3 88.1 20.7 91.9 20.7 97.1 12.3 93.2" class="st133"/><polyline points="20.7 91.9 24.8 93.9 24.8 99 20.7 97.1" class="st0"/><polyline points="24.8 93.9 29 95.8 29 101 24.8 99" class="st133"/><polyline points="29 95.8 33.2 97.8 33.2 108 29 106.1" class="st132"/><polyline points="33.2 97.8 37.3 99.7 37.3 104.8 33.2 102.9" class="st116"/><polyline points="37.3 99.7 45.7 103.6 45.7 108.7 37.3 104.8" class="st133"/><polyline points="49.8 105.5 58.2 109.4 58.2 119.7 54 117.7 54 112.6 49.8 110.7" class="st132"/><polyline points="58.2 109.4 62.3 111.4 62.3 116.5 58.2 114.6" class="st134"/><polyline points="62.3 111.4 66.5 113.3 66.5 118.4 62.3 116.5" class="st0"/><polyline points="12.3 93.2 20.7 97.1 20.7 102.2 24.8 104.1 24.8 109.3 16.5 105.4 16.5 100.2 12.3 98.3" class="st132"/><polyline points="20.7 97.1 24.8 99 24.8 104.1 20.7 102.2" class="st133"/><polyline points="24.8 99 29 101 29 106.1 24.8 104.1" class="st0"/><polyline points="33.2 102.9 37.3 104.8 37.3 110 33.2 108" class="st130"/><polyline points="37.3 104.8 45.7 108.7 45.7 113.8 37.3 110" class="st132"/><polyline points="49.8 110.7 54 112.6 54 117.7 49.8 115.8" class="st116"/><polyline points="58.2 114.6 62.3 116.5 62.3 121.6 58.2 119.7" class="st0"/><polyline points="62.3 116.5 66.5 118.4 66.5 123.6 62.3 121.6" class="st116"/><polyline points="-.2 92.5 4 94.4 4 104.7 -.2 102.7" class="st0"/><polyline points="4 94.4 8.2 96.4 8.2 101.5 4 99.5" class="st116"/><polyline points="8.2 96.4 12.3 98.3 12.3 103.4 8.2 101.5" class="st132"/><polyline points="12.3 98.3 16.5 100.2 16.5 110.5 8.2 106.6 8.2 101.5 12.3 103.4" class="st0"/><polyline points="24.8 104.1 29 106.1 29 111.2 24.8 109.3" class="st133"/><polyline points="58.2 119.7 66.5 123.6 66.5 128.7 58.2 124.8" class="st133"/><polyline points="4 99.5 8.2 101.5 8.2 106.6 4 104.7" class="st132"/><polyline points="16.5 105.4 20.7 107.3 20.7 112.4 16.5 110.5" class="st116"/><polyline points="20.7 107.3 24.8 109.3 24.8 114.4 20.7 112.4" class="st0"/><polyline points="24.8 109.3 33.2 113.1 33.2 118.3 24.8 114.4" class="st132"/><polyline points="37.3 115.1 41.5 117 41.5 122.2 37.3 120.2" class="st116"/><polyline points="41.5 117 45.7 119 45.7 124.1 41.5 122.2" class="st133"/><polyline points="45.7 119 49.8 120.9 49.8 131.2 45.7 129.2" class="st116"/><polyline points="54 122.9 58.2 124.8 58.2 129.9 54 128" class="st133"/><polyline points="58.2 124.8 66.5 128.7 66.5 138.9 58.2 135.1" class="st132"/><polyline points="-.2 102.7 4 104.7 4 114.9 -.2 113" class="st132"/><polyline points="4 104.7 8.2 106.6 8.2 116.9 4 114.9" class="st0"/><polyline points="8.2 106.6 12.3 108.6 12.3 113.7 8.2 111.7" class="st116"/><polyline points="12.3 108.6 16.5 110.5 16.5 115.6 12.3 113.7" class="st133"/><polyline points="16.5 110.5 20.7 112.4 20.7 117.6 16.5 115.6" class="st0"/><polyline points="20.7 112.4 24.8 114.4 24.8 119.5 20.7 117.6" class="st116"/><polyline points="24.8 114.4 29 116.3 29 121.5 24.8 119.5" class="st0"/><polyline points="29 116.3 33.2 118.3 33.2 123.4 29 121.5" class="st116"/><polyline points="8.2 111.7 12.3 113.7 12.3 118.8 8.2 116.9" class="st133"/><polyline points="12.3 113.7 20.7 117.6 20.7 122.7 12.3 118.8" class="st132"/><polyline points="20.7 117.6 24.8 119.5 24.8 124.6 20.7 122.7" class="st0"/><polyline points="24.8 119.5 29 121.5 29 126.6 24.8 124.6" class="st134"/><polyline points="29 121.5 41.5 127.3 41.5 132.4 29 126.6" class="st132"/><polyline points="49.8 131.2 58.2 135.1 58.2 140.2 49.8 136.3" class="st132"/><polyline points="58.2 135.1 62.3 137 62.3 142.1 58.2 140.2" class="st0"/><polyline points="62.3 137 66.5 138.9 66.5 144.1 62.3 142.1" class="st116"/></g><g><polyline points="66.3 62 70.5 60.1 70.5 65.2 66.3 67.2" class="st135"/><polyline points="70.5 60.1 74.7 58.1 74.7 63.3 70.5 65.2" class="st136"/><polyline points="74.7 58.1 78.8 56.2 78.8 61.3 74.7 63.3" class="st137"/><polyline points="78.8 56.2 87.2 52.3 87.2 57.4 78.8 61.3" class="st138"/><polyline points="87.2 52.3 91.3 50.4 91.3 55.5 87.2 57.4" class="st139"/><polyline points="91.3 50.4 95.5 48.4 95.5 53.6 91.3 55.5" class="st140"/><polyline points="95.5 48.4 99.7 46.5 99.7 51.6 95.5 53.6" class="st141"/><polyline points="99.7 46.5 103.8 44.5 103.8 49.7 99.7 51.6" class="st142"/><polyline points="103.8 44.5 108 42.6 108 47.7 103.8 49.7" class="st136"/><polyline points="108 42.6 112.2 40.7 112.2 45.8 108 47.7" class="st143"/><polyline points="112.2 40.7 116.3 38.7 116.3 43.8 112.2 45.8" class="st138"/><polyline points="116.3 38.7 120.5 36.8 120.5 41.9 116.3 43.8" class="st144"/><polyline points="120.5 36.8 124.7 34.8 124.7 40 120.5 41.9" class="st145"/><polyline points="124.7 34.8 128.8 32.9 128.8 38 124.7 40" class="st146"/><polyline points="128.8 32.9 133 30.9 133 36.1 128.8 38" class="st147"/><polyline points="66.3 67.2 70.5 65.2 70.5 70.3 66.3 72.3" class="st148"/><polyline points="70.5 65.2 74.7 63.3 74.7 68.4 70.5 70.3" class="st141"/><polyline points="74.7 63.3 78.8 61.3 78.8 66.5 74.7 68.4" class="st149"/><polyline points="78.8 61.3 83 59.4 83 64.5 78.8 66.5" class="st150"/><polyline points="83 59.4 87.2 57.4 87.2 62.6 83 64.5" class="st151"/><polyline points="87.2 57.4 91.3 55.5 91.3 65.8 95.5 63.8 95.5 58.7 99.7 56.7 99.7 67 87.2 72.8" class="st152"/><polyline points="91.3 55.5 95.5 53.6 95.5 58.7 91.3 60.6" class="st153"/><polyline points="95.5 53.6 99.7 51.6 99.7 56.7 95.5 58.7" class="st145"/><polyline points="99.7 51.6 103.8 49.7 103.8 54.8 99.7 56.7" class="st140"/><polyline points="103.8 49.7 108 47.7 108 52.9 103.8 54.8" class="st154"/><polyline points="108 47.7 112.2 45.8 112.2 50.9 108 52.9" class="st155"/><polyline points="112.2 45.8 116.3 43.8 116.3 49 112.2 50.9" class="st137"/><polyline points="116.3 43.8 120.5 41.9 120.5 47 116.3 49" class="st145"/><polyline points="120.5 41.9 124.7 40 124.7 45.1 120.5 47" class="st141"/><polyline points="124.7 40 128.8 38 128.8 43.1 124.7 45.1" class="st138"/><polyline points="128.8 38 133 36.1 133 41.2 128.8 43.1" class="st143"/><polyline points="66.3 72.3 70.5 70.3 70.5 75.5 66.3 77.4" class="st156"/><polyline points="70.5 70.3 74.7 68.4 74.7 73.5 70.5 75.5" class="st152"/><polyline points="74.7 68.4 78.8 66.5 78.8 71.6 74.7 73.5" class="st157"/><polyline points="78.8 66.5 83 64.5 83 69.6 78.8 71.6" class="st158"/><polyline points="83 64.5 87.2 62.6 87.2 67.7 83 69.6" class="st144"/><polyline points="91.3 60.6 95.5 58.7 95.5 63.8 91.3 65.8" class="st159"/><polyline points="99.7 56.7 103.8 54.8 103.8 59.9 99.7 61.9" class="st135"/><polyline points="103.8 54.8 108 52.9 108 58 103.8 59.9" class="st160"/><polyline points="108 52.9 112.2 50.9 112.2 56 108 58" class="st161"/><polyline points="112.2 50.9 116.3 49 116.3 54.1 112.2 56" class="st162"/><polyline points="116.3 49 120.5 47 120.5 52.2 116.3 54.1" class="st152"/><polyline points="120.5 47 124.7 45.1 124.7 50.2 120.5 52.2" class="st163"/><polyline points="124.7 45.1 128.8 43.1 128.8 48.3 124.7 50.2" class="st140"/><polyline points="128.8 43.1 133 41.2 133 46.3 128.8 48.3" class="st152"/><polyline points="66.3 77.4 70.5 75.5 70.5 80.6 66.3 82.5" class="st152"/><polyline points="70.5 75.5 74.7 73.5 74.7 78.7 70.5 80.6" class="st164"/><polyline points="74.7 73.5 83 69.6 83 74.8 74.7 78.7" class="st152"/><polyline points="83 69.6 87.2 67.7 87.2 72.8 83 74.8" class="st165"/><polyline points="99.7 61.9 103.8 59.9 103.8 65.1 99.7 67" class="st140"/><polyline points="103.8 59.9 108 58 108 63.1 112.2 61.2 112.2 66.3 103.8 70.2 103.8 75.3 91.3 81.1 91.3 76 99.7 72.1 99.7 67 103.8 65.1" class="st152"/><polyline points="108 58 112.2 56 112.2 61.2 108 63.1" class="st147"/><polyline points="112.2 56 116.3 54.1 116.3 59.2 112.2 61.2" class="st152"/><polyline points="116.3 54.1 120.5 52.2 120.5 62.4 128.8 58.5 128.8 68.8 124.7 70.7 124.7 65.6 120.5 67.5 120.5 72.7 124.7 70.7 124.7 81 116.3 84.9 116.3 100.2 124.7 96.4 124.7 101.5 120.5 103.4 120.5 108.6 124.7 106.6 124.7 111.7 116.3 115.6 116.3 105.4 103.8 111.2 103.8 116.3 112.2 112.4 112.2 117.6 116.3 115.6 116.3 120.8 108 124.6 108 119.5 99.7 123.4 99.7 113.1 95.5 115.1 95.5 110 112.2 102.2 112.2 91.9 95.5 99.7 95.5 94.6 99.7 92.6 99.7 87.5 103.8 85.6 103.8 90.7 112.2 86.8 112.2 81.7 116.3 79.7" class="st166"/><polyline points="120.5 52.2 128.8 48.3 128.8 58.5 124.7 60.5 124.7 55.3 120.5 57.3" class="st152"/><polyline points="128.8 48.3 133 46.3 133 56.6 128.8 58.5" class="st166"/><polyline points="66.3 82.5 70.5 80.6 70.5 85.7 66.3 87.7" class="st167"/><polyline points="70.5 80.6 74.7 78.7 74.7 83.8 70.5 85.7" class="st166"/><polyline points="74.7 78.7 78.8 76.7 78.8 81.8 83 79.9 83 85 74.7 88.9" class="st167"/><polyline points="78.8 76.7 83 74.8 83 79.9 78.8 81.8" class="st168"/><polyline points="83 74.8 87.2 72.8 87.2 78 83 79.9" class="st152"/><polyline points="87.2 72.8 91.3 70.9 91.3 81.1 87.2 83.1" class="st167"/><polyline points="91.3 70.9 99.7 67 99.7 72.1 91.3 76" class="st166"/><polyline points="112.2 61.2 116.3 59.2 116.3 64.4 112.2 66.3" class="st164"/><polyline points="120.5 57.3 124.7 55.3 124.7 60.5 120.5 62.4" class="st167"/><polyline points="66.3 87.7 70.5 85.7 70.5 90.9 66.3 92.8" class="st166"/><polyline points="70.5 85.7 74.7 83.8 74.7 94 70.5 96" class="st152"/><polyline points="83 79.9 87.2 78 87.2 83.1 83 85" class="st166"/><polyline points="103.8 70.2 112.2 66.3 112.2 71.4 108 73.4 108 78.5 103.8 80.4" class="st166"/><polyline points="112.2 66.3 116.3 64.4 116.3 69.5 112.2 71.4" class="st152"/><polyline points="128.8 58.5 133 56.6 133 61.7 128.8 63.7" class="st168"/><polyline points="66.3 92.8 70.5 90.9 70.5 101.1 66.3 103.1" class="st168"/><polyline points="74.7 88.9 83 85 83 90.2 74.7 94" class="st166"/><polyline points="83 85 87.2 83.1 87.2 88.2 83 90.2" class="st169"/><polyline points="87.2 83.1 95.5 79.2 95.5 84.3 99.7 82.4 99.7 87.5 95.5 89.5 95.5 94.6 91.3 96.5 91.3 86.3 87.2 88.2" class="st166"/><polyline points="95.5 79.2 103.8 75.3 103.8 80.4 95.5 84.3" class="st168"/><polyline points="108 73.4 116.3 69.5 116.3 74.6 108 78.5" class="st168"/><polyline points="120.5 67.5 124.7 65.6 124.7 70.7 120.5 72.7" class="st167"/><polyline points="128.8 63.7 133 61.7 133 72 124.7 75.9 124.7 70.7 128.8 68.8" class="st167"/><polyline points="70.5 96 74.7 94 74.7 99.2 78.8 97.2 78.8 102.4 70.5 106.2" class="st166"/><polyline points="74.7 94 83 90.2 83 95.3 74.7 99.2" class="st168"/><polyline points="83 90.2 91.3 86.3 91.3 96.5 87.2 98.5 87.2 93.3 83 95.3" class="st167"/><polyline points="99.7 82.4 103.8 80.4 103.8 85.6 99.7 87.5" class="st167"/><polyline points="103.8 80.4 108 78.5 108 83.6 103.8 85.6" class="st152"/><polyline points="108 78.5 116.3 74.6 116.3 79.7 112.2 81.7 112.2 86.8 103.8 90.7 103.8 85.6 108 83.6" class="st167"/><polyline points="66.3 103.1 70.5 101.1 70.5 106.2 74.7 104.3 74.7 114.6 70.5 116.5 70.5 121.6 66.3 123.6" class="st167"/><polyline points="78.8 97.2 83 95.3 83 100.4 78.8 102.4" class="st167"/><polyline points="83 95.3 87.2 93.3 87.2 103.6 78.8 107.5 78.8 102.4 83 100.4" class="st166"/><polyline points="95.5 89.5 99.7 87.5 99.7 92.6 95.5 94.6" class="st152"/><polyline points="124.7 75.9 128.8 73.9 128.8 79 124.7 81" class="st152"/><polyline points="128.8 73.9 133 72 133 77.1 128.8 79" class="st166"/><polyline points="74.7 104.3 78.8 102.4 78.8 107.5 74.7 109.4" class="st152"/><polyline points="87.2 98.5 95.5 94.6 95.5 99.7 87.2 103.6" class="st152"/><polyline points="116.3 84.9 124.7 81 124.7 86.1 116.3 90" class="st168"/><polyline points="124.7 81 128.8 79 128.8 84.2 124.7 86.1" class="st166"/><polyline points="128.8 79 133 77.1 133 82.2 128.8 84.2" class="st167"/><polyline points="74.7 109.4 78.8 107.5 78.8 117.7 70.5 121.6 70.5 116.5 74.7 114.6" class="st166"/><polyline points="78.8 107.5 87.2 103.6 87.2 108.7 78.8 112.6" class="st168"/><polyline points="87.2 103.6 91.3 101.7 91.3 106.8 87.2 108.7" class="st166"/><polyline points="91.3 101.7 95.5 99.7 95.5 104.8 91.3 106.8" class="st168"/><polyline points="95.5 99.7 99.7 97.8 99.7 108 95.5 110" class="st167"/><polyline points="99.7 97.8 103.8 95.8 103.8 101 99.7 102.9" class="st152"/><polyline points="103.8 95.8 112.2 91.9 112.2 97.1 103.8 101" class="st168"/><polyline points="116.3 90 124.7 86.1 124.7 96.4 120.5 98.3 120.5 93.2 116.3 95.1" class="st167"/><polyline points="124.7 86.1 128.8 84.2 128.8 89.3 124.7 91.2" class="st169"/><polyline points="128.8 84.2 133 82.2 133 87.4 128.8 89.3" class="st166"/><polyline points="78.8 112.6 87.2 108.7 87.2 113.8 91.3 111.9 91.3 117 83 120.9 83 115.8 78.8 117.7" class="st167"/><polyline points="87.2 108.7 91.3 106.8 91.3 111.9 87.2 113.8" class="st168"/><polyline points="91.3 106.8 95.5 104.8 95.5 110 91.3 111.9" class="st166"/><polyline points="99.7 102.9 103.8 101 103.8 106.1 99.7 108" class="st164"/><polyline points="103.8 101 112.2 97.1 112.2 102.2 103.8 106.1" class="st167"/><polyline points="116.3 95.1 120.5 93.2 120.5 98.3 116.3 100.2" class="st152"/><polyline points="124.7 91.2 128.8 89.3 128.8 94.4 124.7 96.4" class="st166"/><polyline points="128.8 89.3 133 87.4 133 92.5 128.8 94.4" class="st152"/><polyline points="66.3 123.6 70.5 121.6 70.5 131.9 66.3 133.8" class="st166"/><polyline points="70.5 121.6 74.7 119.7 74.7 124.8 70.5 126.7" class="st152"/><polyline points="74.7 119.7 78.8 117.7 78.8 122.9 74.7 124.8" class="st167"/><polyline points="78.8 117.7 83 115.8 83 126 74.7 129.9 74.7 124.8 78.8 122.9" class="st166"/><polyline points="91.3 111.9 95.5 110 95.5 115.1 91.3 117" class="st168"/><polyline points="124.7 96.4 133 92.5 133 97.6 124.7 101.5" class="st168"/><polyline points="70.5 126.7 74.7 124.8 74.7 129.9 70.5 131.9" class="st167"/><polyline points="83 120.9 87.2 119 87.2 124.1 83 126" class="st152"/><polyline points="87.2 119 91.3 117 91.3 122.2 87.2 124.1" class="st166"/><polyline points="91.3 117 99.7 113.1 99.7 118.3 91.3 122.2" class="st167"/><polyline points="103.8 111.2 108 109.3 108 114.4 103.8 116.3" class="st152"/><polyline points="108 109.3 112.2 107.3 112.2 112.4 108 114.4" class="st168"/><polyline points="112.2 107.3 116.3 105.4 116.3 115.6 112.2 117.6" class="st152"/><polyline points="120.5 103.4 124.7 101.5 124.7 106.6 120.5 108.6" class="st168"/><polyline points="124.7 101.5 133 97.6 133 107.9 124.7 111.7" class="st167"/><polyline points="66.3 133.8 70.5 131.9 70.5 142.1 66.3 144.1" class="st167"/><polyline points="70.5 131.9 74.7 129.9 74.7 140.2 70.5 142.1" class="st166"/><polyline points="74.7 129.9 78.8 128 78.8 133.1 74.7 135.1" class="st152"/><polyline points="78.8 128 83 126 83 131.2 78.8 133.1" class="st168"/><polyline points="83 126 87.2 124.1 87.2 129.2 83 131.2" class="st166"/><polyline points="87.2 124.1 91.3 122.2 91.3 127.3 87.2 129.2" class="st152"/><polyline points="91.3 122.2 95.5 120.2 95.5 125.3 91.3 127.3" class="st166"/><polyline points="95.5 120.2 99.7 118.3 99.7 123.4 95.5 125.3" class="st152"/><polyline points="74.7 135.1 78.8 133.1 78.8 138.2 74.7 140.2" class="st168"/><polyline points="78.8 133.1 87.2 129.2 87.2 134.4 78.8 138.2" class="st167"/><polyline points="87.2 129.2 91.3 127.3 91.3 132.4 87.2 134.4" class="st166"/><polyline points="91.3 127.3 95.5 125.3 95.5 130.5 91.3 132.4" class="st169"/><polyline points="95.5 125.3 108 119.5 108 124.6 95.5 130.5" class="st167"/><polyline points="116.3 115.6 124.7 111.7 124.7 116.9 116.3 120.8" class="st167"/><polyline points="124.7 111.7 128.8 109.8 128.8 114.9 124.7 116.9" class="st166"/><polyline points="128.8 109.8 133 107.9 133 113 128.8 114.9" class="st152"/></g></g></g></svg>